<svg id="SvgjsSvg1001" width="288" height="288" xmlns="http://www.w3.org/2000/svg" version="1.1" xmlns:xlink="http://www.w3.org/1999/xlink" xmlns:svgjs="http://svgjs.com/svgjs"><defs id="SvgjsDefs1002"></defs><g id="SvgjsG1008"><svg xmlns="http://www.w3.org/2000/svg" enable-background="new 0 0 32 32" viewBox="0 0 32 32" width="288" height="288"><path fill="#00c6ff" d="M29.5 7h-18c-.167 0-.323-.084-.416-.223L9.639 4.609C9.426 4.29 8.884 4 8.5 4h-5C3.224 4 3 4.225 3 4.5v2C3 6.776 2.776 7 2.5 7S2 6.776 2 6.5v-2C2 3.673 2.673 3 3.5 3h5c.723 0 1.571.453 1.971 1.055L11.768 6H29.5C29.776 6 30 6.224 30 6.5S29.776 7 29.5 7zM29.5 30h-27C1.673 30 1 29.327 1 28.5v-19C1 8.673 1.673 8 2.5 8h27C30.327 8 31 8.673 31 9.5v19C31 29.327 30.327 30 29.5 30zM2.5 9C2.224 9 2 9.225 2 9.5v19C2 28.775 2.224 29 2.5 29h27c.276 0 .5-.225.5-.5v-19C30 9.225 29.776 9 29.5 9H2.5z" class="color263238 svgShape"></path><path fill="#00c6ff" d="M25.5 28h-24C1.224 28 1 27.776 1 27.5S1.224 27 1.5 27h24c.276 0 .5.224.5.5S25.776 28 25.5 28zM13.5 13h-9C4.224 13 4 12.776 4 12.5S4.224 12 4.5 12h9c.276 0 .5.224.5.5S13.776 13 13.5 13zM9.5 15h-5C4.224 15 4 14.776 4 14.5S4.224 14 4.5 14h5c.276 0 .5.224.5.5S9.776 15 9.5 15z" class="color263238 svgShape"></path><circle cx="27.5" cy="27.5" r=".5" fill="#00c6ff" class="color263238 svgShape"></circle></svg></g></svg>